<svg width="573" height="372" viewBox="0 0 573 372" fill="none" xmlns="http://www.w3.org/2000/svg">
<path d="M31.4527 0H541.443C558.779 0 572.896 13.175 572.896 29.3531V342.55C572.896 358.728 558.779 371.903 541.443 371.903H31.4527C14.1174 372 0 358.825 0 342.647V29.3531C0 13.175 14.1174 0 31.4527 0Z" fill="#FF0000"/>
<path d="M87.1948 0H485.804V372H87.1948V0Z" fill="white"/>
<path d="M286.501 34.875L259.304 82.2469C256.19 87.3812 250.688 86.8969 245.083 83.9906L225.36 74.4969L239.997 147.153C243.111 160.425 233.146 160.425 228.267 154.709L193.907 118.866L188.406 137.078C187.783 139.5 184.98 142.019 180.724 141.437L137.334 132.912L148.753 171.662C151.244 180.284 153.112 183.869 146.261 186.097L130.794 192.878L205.637 249.55C208.648 251.681 210.101 255.556 208.959 259.044L202.419 279.097C228.163 276.287 251.311 272.122 277.055 269.603C279.338 269.409 283.075 272.8 283.075 275.319L279.754 348.75H292.21L290.238 275.512C290.238 272.994 293.663 269.409 295.947 269.603C321.691 272.219 344.839 276.384 370.583 279.097L363.939 258.947C362.797 255.459 364.354 251.681 367.261 249.453L442.104 192.781L426.637 186C419.786 183.675 421.654 180.187 424.146 171.566L435.564 132.816L392.174 141.341C387.918 141.922 385.115 139.403 384.492 136.981L378.991 118.769L344.631 154.612C339.753 160.328 329.891 160.328 332.902 147.056L347.538 74.4L327.815 83.8937C322.313 86.8 316.708 87.1875 313.594 82.15L286.501 34.875Z" fill="#FF0000"/>
</svg>
