<svg width="573" height="372" viewBox="0 0 573 372" fill="none" xmlns="http://www.w3.org/2000/svg">
<path d="M31.2451 0H541.651C558.883 0.096875 572.896 13.2719 572.896 29.3531V342.55C572.896 358.631 558.883 371.806 541.651 371.903L31.1413 372C14.0136 371.806 0 358.631 0 342.647V29.3531C0 13.2719 14.0136 0.096875 31.2451 0Z" fill="#DE2910"/>
<path d="M87.1948 37.2L122.385 138.144L30.3101 75.7562H144.08L52.0052 138.144L87.1948 37.2Z" fill="#FFDE00"/>
<path d="M194.634 20.0532L191.312 55.3157L171.797 24.9938L206.676 38.8469L169.721 46.7907L194.634 20.0532Z" fill="#FFDE00"/>
<path d="M241.033 61.4187L223.283 92.7093L217.885 57.7374L244.355 83.1187L206.985 77.0155L241.033 61.4187Z" fill="#FFDE00"/>
<path d="M245.396 123.806L215.604 145.603L225.985 111.6L238.96 144.828L207.507 125.066L245.396 123.806Z" fill="#FFDE00"/>
<path d="M193.906 149.963L192.141 185.322L171.276 155.775L206.777 168.272L170.238 177.669L193.906 149.963Z" fill="#FFDE00"/>
</svg>
