<svg width="939" height="739" viewBox="0 0 939 739" fill="none" xmlns="http://www.w3.org/2000/svg">
<path d="M259.03 210.728C258.718 208.231 258.086 205.785 257.15 203.452C257.031 203.011 256.822 202.6 256.537 202.245C256.252 201.89 255.897 201.599 255.494 201.39C254.956 201.249 254.392 201.242 253.851 201.372L245.415 202.677C244.709 202.709 244.033 202.975 243.49 203.433C242.392 204.601 243.474 206.482 243.44 208.094C243.402 209.907 241.809 211.378 240.082 211.865C238.319 212.225 236.501 212.202 234.747 211.798L222.951 209.944C226.425 208.823 229.517 206.736 231.875 203.923C233.427 202.064 234.253 198.593 232.009 197.712C231.343 197.527 230.648 197.471 229.961 197.546C224.616 197.588 220.41 193.076 215.407 191.176C212.205 190.039 208.729 189.954 205.476 190.934C202.224 191.915 199.361 193.91 197.297 196.635L203.581 196.941C204.172 196.908 204.759 197.066 205.255 197.392C206.632 198.536 204.92 200.734 205.114 202.525C205.366 204.852 208.423 205.349 210.726 205.585C213.03 205.82 215.953 207.713 214.845 209.768C203.265 213.801 191.481 201.885 179.32 203.352C176.242 203.723 173.335 204.946 170.33 205.714C151.973 210.411 132.994 197.881 114.241 200.534C110.072 201.253 105.975 202.346 101.997 203.799C99.4449 204.647 96.7826 205.562 94.9281 207.527C93.0736 209.492 92.3678 212.853 94.1247 214.908C89.2823 215.311 84.4076 214.843 79.727 213.524C80.9928 214.236 82.0457 215.278 82.7754 216.543C83.5051 217.808 83.8845 219.248 83.874 220.712C76.3132 221.958 68.9526 224.227 61.9902 227.458C63.2897 229.643 64.8074 231.687 66.5197 233.559L56.9479 239.776C60.1817 240.6 61.8536 245.058 59.9731 247.843C63.3261 246.335 65.4042 242.433 68.9898 241.642C71.3388 241.124 73.729 242.095 75.9574 243.008C78.1858 243.921 80.6351 244.806 82.9419 244.121C85.2488 243.436 86.9503 240.411 85.4845 238.484C95.3447 235.576 105.535 233.966 115.803 233.695C116.595 233.595 117.398 233.749 118.099 234.136C119.436 235.073 119.084 237.099 119.012 238.742C118.94 240.385 120.207 242.544 121.659 241.804C119.95 243.302 121.411 246.123 123.051 247.698C124.69 249.274 126.666 251.448 125.662 253.497C125.4 254.032 124.956 254.46 124.704 255C123.96 256.593 125.141 258.45 126.535 259.508C127.928 260.566 129.635 261.306 130.603 262.771C131.571 264.236 131.131 266.8 129.4 267.005L124.481 260.69C122.8 262.452 121.648 264.659 121.158 267.057C126.374 271.368 127.159 280.145 122.792 285.332C120.56 287.983 117.386 289.594 114.616 291.662C111.846 293.73 109.283 296.674 109.29 300.156C109.302 306.17 108.816 311.758 111.045 317.334C115.155 327.616 119.901 337.627 125.254 347.307C126.66 349.849 128.476 352.635 131.324 353.073C127.725 344.214 124.485 335.218 121.605 326.085C123.481 326.092 125.649 326.243 126.749 327.779C127.66 329.052 127.464 330.782 127.747 332.327C128.107 333.823 128.707 335.25 129.524 336.55L146.709 367.501C148.134 370.067 149.768 372.821 152.491 373.86C154.232 374.525 156.246 374.399 157.848 375.356C159.104 376.106 159.95 377.436 161.23 378.143C164.851 380.139 169.885 376.31 173.268 378.694C174.236 379.376 174.851 380.458 175.742 381.239C178.867 383.975 183.993 382.145 187.6 384.186C189.925 385.501 191.129 388.131 192.369 390.515C195.475 396.487 200.501 402.337 207.157 402.812C209.248 402.962 211.384 402.561 213.428 403.031C215.472 403.501 217.484 405.305 217.156 407.398C216.593 410.987 218.347 414.916 217.876 418.518C217.018 425.079 207.813 427.962 207.023 434.532C206.85 435.971 207.121 437.455 206.782 438.863C206.367 440.589 205.085 441.994 204.629 443.709C203.766 446.96 206.069 450.195 208.6 452.381C211.13 454.568 214.148 456.454 215.532 459.515C216.994 462.751 216.276 466.524 216.751 470.048C217.789 477.743 224.363 483.448 231.128 487.126C233.189 488.246 235.402 489.331 236.736 491.276C238.478 493.813 238.304 497.158 238.886 500.19C240.31 507.615 246.492 513.733 246.668 521.295C246.792 526.669 243.837 531.545 242.072 536.616C240.418 541.475 239.819 546.637 240.317 551.751C240.815 556.865 242.398 561.81 244.958 566.249C246.279 568.504 247.858 570.629 248.792 573.073C250.459 577.434 249.918 582.391 251.455 586.801C253.487 592.631 259.07 597.446 258.535 603.603C261.07 608.925 266.667 611.54 272.296 613.124L282.383 615.963C284.314 616.507 286.333 617.055 288.299 616.661C290.266 616.268 292.143 614.616 292.092 612.59C287.146 611.462 282.04 610.263 277.963 607.215C273.885 604.167 271.092 598.74 272.639 593.858C273.356 591.594 274.882 588.979 273.431 587.109C272.601 586.038 271.081 585.758 270.144 584.78C268.683 583.256 269.185 580.696 270.236 578.857C271.286 577.019 272.805 575.377 273.229 573.297C273.443 572.134 273.3 570.933 272.819 569.854C272.339 568.775 271.543 567.871 270.54 567.262C272.41 566.548 274.111 565.444 275.532 564.023C276.845 562.507 277.452 560.17 276.419 558.446C279.486 558.84 283.107 559.032 285.121 556.66C286.729 554.766 286.618 551.934 285.983 549.522C285.348 547.109 284.274 544.766 284.24 542.27C291.316 542.61 298.407 542.366 305.443 541.544C304.426 538.079 302.113 535.151 298.997 533.381C302.184 532.836 305.087 528.978 306.094 525.873C307.1 522.768 306.844 519.385 306.221 516.179C305.982 515.353 305.95 514.48 306.126 513.639C306.485 512.482 307.608 511.777 308.648 511.173L324.466 501.988C325.41 501.51 326.266 500.871 326.995 500.1C328.653 498.132 328.407 495.161 327.559 492.723C326.71 490.284 325.351 487.991 325.024 485.428C324.046 477.761 332.164 472.259 334.904 465.042C335.979 462.21 336.198 459.131 336.406 456.105C336.629 452.854 336.646 449.078 334.177 446.984C331.811 444.976 328.114 445.424 325.638 443.556C323.368 441.843 322.584 438.518 320.104 437.135C317.852 435.878 315.028 436.677 312.523 436.087C308.113 435.046 305.338 429.907 300.833 429.431C298.292 429.163 295.416 430.419 293.333 428.922C291.497 427.604 291.424 424.954 291.075 422.705C290.462 419.21 288.805 415.988 286.327 413.474C283.849 410.961 280.668 409.275 277.213 408.645C274.593 408.22 271.741 408.381 269.512 406.925C267.254 405.451 266.219 402.691 264.446 400.649C261.589 397.359 257.088 396.19 252.872 395.188L235.723 391.112C232.679 390.388 228.755 390.005 227.121 392.701C226.638 393.727 226.296 394.816 226.104 395.936C225.492 397.963 224.26 399.742 222.585 401.016C220.911 402.29 218.88 402.995 216.784 403.029C215.347 400.55 213.018 398.729 210.285 397.944C208.546 397.454 206.684 397.4 205.026 396.679C204.123 396.233 203.319 395.606 202.664 394.835C202.009 394.065 201.516 393.167 201.216 392.197C200.916 391.227 200.815 390.206 200.919 389.195C201.023 388.184 201.33 387.205 201.821 386.319C202.809 384.539 203.191 382.48 202.907 380.459C202.623 378.438 201.689 376.567 200.249 375.136C197.333 372.489 193.114 371.849 189.204 372.114C188.18 369.855 189.892 367.306 191.738 365.664C193.583 364.022 195.824 362.407 196.226 359.955C196.858 356.098 191.99 353.169 188.295 354.319C184.599 355.469 182.24 359.098 180.681 362.676C179.786 364.729 179.026 366.89 177.615 368.621C176.203 370.352 173.931 371.591 171.781 371.036C168.738 370.249 167.563 366.594 166.889 363.492C165.986 359.331 165.077 355.111 165.266 350.855C165.456 346.598 166.875 342.228 169.979 339.346C175.038 334.651 182.798 335.111 189.625 335.86C188.012 334.023 188.411 330.926 190.136 329.197C191.047 328.378 192.142 327.797 193.326 327.503C194.509 327.209 195.745 327.212 196.928 327.51C198.985 327.943 200.838 329.063 202.189 330.69C204.129 333.082 204.681 336.311 206.147 339.025C207.614 341.74 210.911 344.055 213.61 342.599C215.941 341.341 216.311 338.073 215.731 335.466C215.151 332.86 213.918 330.326 214.129 327.663C214.53 322.581 219.739 319.522 224.337 317.43C228.934 315.337 234.199 312.522 234.927 307.478C234.952 306.491 235.136 305.514 235.472 304.586C235.982 303.767 236.691 303.093 237.531 302.629C250.948 293.664 264.589 284.589 279.925 279.69C280.723 279.435 280.816 279.718 281.63 279.519C282.768 278.854 282.013 277.014 280.922 276.273C279.831 275.532 278.373 274.964 278.096 273.665C277.893 272.71 278.449 271.772 278.594 270.806C278.949 268.433 276.141 266.241 273.96 267.19C272.728 265.541 275.166 263.624 277.136 263.075C283.055 261.428 289.13 260.425 295.259 260.082C295.967 259.968 296.691 260.093 297.322 260.437C298.351 261.158 298.22 262.811 297.49 263.84C296.76 264.869 295.626 265.516 294.716 266.386C293.723 267.365 293.015 268.6 292.668 269.958C292.322 271.315 292.351 272.743 292.753 274.085C295.952 275.731 299.431 277.425 302.975 276.845C306.519 276.265 309.664 272.239 307.998 269.024C306.447 266.03 301.788 265.355 300.987 262.073C300.048 258.231 305.428 254.814 304.216 251.051C303.685 249.403 302.06 248.433 300.814 247.243C299.341 245.784 298.34 243.909 297.941 241.864C297.542 239.819 297.763 237.699 298.577 235.784C296.546 236.145 294.46 236.009 292.492 235.386C290.524 234.764 288.733 233.673 287.268 232.206C284.563 229.446 282.405 225.092 278.564 225.215C275.039 225.329 272.003 229.487 268.707 228.218C267.896 227.906 267.041 227.271 266.255 227.643C265.998 227.812 265.782 228.038 265.623 228.304C265.465 228.57 265.368 228.869 265.341 229.178C264.503 233.227 265.944 237.84 263.762 241.338C261.387 245.146 255.893 245.674 253.014 249.107C251.451 250.97 250.845 253.482 249.409 255.447C247.972 257.411 244.923 258.661 243.199 256.948C244.046 255.187 244.277 253.187 243.855 251.276C243.433 249.365 242.382 247.654 240.873 246.425C239.273 245.369 237.547 244.521 235.738 243.9C233.715 243.034 231.792 241.95 230 240.666C229.102 240.119 228.373 239.33 227.894 238.388C227.514 237.208 227.565 235.929 228.038 234.784C228.912 232.25 230.454 230.005 232.498 228.292C234.542 226.58 237.009 225.464 239.635 225.066C241.93 224.75 244.602 224.861 246.121 223.093C246.925 222.157 247.347 220.742 248.513 220.362C249.26 220.211 250.035 220.307 250.722 220.637L259.29 223.686C260.246 224.123 261.299 224.299 262.343 224.197C262.86 224.126 263.333 223.861 263.664 223.453C263.996 223.045 264.163 222.525 264.132 221.998C263.858 220.559 261.669 219.869 261.868 218.418C261.98 217.948 262.23 217.523 262.585 217.199C265.677 213.872 269.459 211.276 273.659 209.599C277.859 207.922 282.374 207.205 286.881 207.499C287.962 209.295 286.252 211.421 284.829 212.954C283.406 214.487 282.262 217.226 283.983 218.406C284.688 218.77 285.473 218.949 286.265 218.926C288.374 219.214 290.424 219.843 292.337 220.788C295.298 222.091 298.202 223.516 301.049 225.064C300.797 223.166 300.557 221.167 301.269 219.392C301.98 217.617 304.003 216.225 305.769 216.916C307.471 217.582 308.344 219.861 310.158 220.07C312.577 220.349 313.532 216.735 312.521 214.495C311.511 212.255 309.51 210.38 309.343 207.924C309.23 206.267 309.854 204.212 308.545 203.209C308.079 202.907 307.55 202.72 307 202.661L274.314 196.58C272.374 196.219 269.569 196.495 269.483 198.489C269.435 199.602 270.418 200.702 269.983 201.726C269.518 202.818 267.991 202.718 266.879 203.104C265.154 203.703 264.288 205.775 264.454 207.611C264.757 209.437 265.456 211.171 266.501 212.691C264.375 211.792 261.156 211.627 259.03 210.728Z" fill="#FF8E4F"/>
<path d="M232.95 182.675C230.889 181.985 228.668 181.953 226.588 182.582C224.508 183.212 222.67 184.473 221.323 186.195C220.785 186.911 220.333 187.899 220.783 188.675C221.429 189.787 223.075 189.348 224.289 188.95C226.072 188.306 228.014 188.259 229.826 188.816C230.965 189.212 231.985 189.911 233.129 190.292C233.686 190.527 234.296 190.605 234.894 190.517C235.491 190.429 236.054 190.178 236.521 189.791C237.306 188.981 237.356 187.722 237.357 186.587C237.412 186.208 237.381 185.821 237.269 185.454C237.157 185.088 236.965 184.752 236.708 184.47C236.25 184.201 235.735 184.048 235.206 184.021C234.022 183.799 232.951 183.167 232.179 182.232" fill="#FF8E4F"/>
<path d="M244.736 179.357C244.274 179.331 243.814 179.426 243.4 179.633C242.986 179.839 242.631 180.15 242.369 180.535C242.108 180.92 241.949 181.366 241.907 181.831C241.866 182.297 241.944 182.765 242.133 183.191C243.55 183.581 245.03 183.679 246.485 183.478C247.21 183.364 247.886 183.035 248.427 182.534C248.969 182.032 249.351 181.379 249.526 180.658C247.813 180.973 246.046 180.632 244.568 179.701" fill="#FF8E4F"/>
<path d="M284.279 173.816C280.423 174.644 276.678 175.931 273.121 177.648C274.798 178.3 276.223 179.479 277.187 181.012C278.151 182.544 278.603 184.35 278.475 186.161C278.325 186.857 278.342 187.579 278.526 188.266C278.936 189.271 280.123 189.648 281.167 189.906C283.043 190.483 285.001 190.735 286.96 190.653C287.94 190.601 288.892 190.303 289.729 189.786C290.566 189.269 291.263 188.548 291.755 187.69C292.039 186.876 292.372 186.08 292.753 185.307C295.255 181.454 302.689 186.113 305.376 182.389C306.322 181.077 306.235 179.102 307.469 178.063C308.107 177.61 308.847 177.324 309.621 177.232C315.024 176.147 320.482 175.361 325.97 174.878C328.57 174.649 331.959 173.705 331.981 171.066C322.187 169.122 312.032 170.503 303.094 174.995C299.874 176.626 295.615 180.056 292.513 177.894C291.352 177.085 291.409 174.905 289.811 173.995C288.177 173.065 286.013 173.443 284.279 173.816Z" fill="#FF8E4F"/>
<path d="M316.308 179.872L320.906 180.765C320.06 180.727 319.215 180.872 318.429 181.19C317.642 181.508 316.932 181.993 316.345 182.61C315.758 183.228 315.309 183.965 315.026 184.773C314.743 185.58 314.634 186.439 314.706 187.293C319.011 188.747 323.705 187.332 328.241 187.525C332.776 187.718 338.053 190.994 337.278 195.516C337.044 196.883 336.263 198.25 336.669 199.575C336.954 200.504 337.764 201.164 338.222 202.019C339.175 203.802 338.413 206.058 337.21 207.678C336.006 209.299 334.388 210.592 333.332 212.315C330.704 216.599 332.197 222.138 333.762 226.924C334.215 228.732 335.051 230.419 336.212 231.869C338.531 234.362 342.31 234.579 345.694 234.629C348.157 234.665 350.979 234.542 352.537 232.612C354.571 230.093 353.149 226.163 354.488 223.206C355.704 220.521 358.802 219.369 361.609 218.552C366.751 217.055 371.992 215.782 376.854 213.521C382.891 210.714 388.533 206.338 395.168 205.977C397.03 205.876 398.937 206.098 400.731 205.582C402.524 205.066 404.227 203.499 404.091 201.619C403.975 200.013 402.631 198.833 401.581 197.623C400.531 196.412 399.706 194.55 400.671 193.269L418.063 189.984C416.831 186.587 415.87 182.113 418.703 179.902C419.725 179.104 421.094 178.786 421.964 177.821C423.447 176.177 422.702 173.345 420.989 171.947C419.277 170.549 416.962 170.225 414.769 170.041C407.143 169.4 399.473 169.824 391.832 170.247C376.896 171.075 361.959 171.903 347.023 172.73C344.016 172.897 340.545 172.642 337.787 173.68C335.452 174.558 333.792 176.169 331.122 176.736C326.193 177.781 320.769 177.074 316.308 179.872Z" fill="#FF8E4F"/>
<path d="M398.671 216.614C398.203 216.539 397.724 216.649 397.333 216.921C397.075 217.208 396.921 217.576 396.897 217.964C396.601 219.675 396.954 221.437 397.887 222.896C398.363 223.611 399.019 224.185 399.788 224.558C400.556 224.931 401.41 225.089 402.26 225.015C404.33 224.748 405.855 222.962 407.758 222.091C410.692 220.749 423.149 218.658 414.532 213.951C411.562 212.329 409.643 213.761 407.303 214.829C404.64 216.206 401.655 216.823 398.671 216.614Z" fill="#FF8E4F"/>
<path d="M474.148 177.214C473.141 177.63 472.3 178.371 471.754 179.321C471.502 179.804 471.444 180.366 471.591 180.89C471.737 181.415 472.078 181.863 472.542 182.141C472.918 182.279 473.316 182.343 473.716 182.329L477.807 182.453C479.545 182.505 481.716 182.88 482.184 184.573C482.53 185.831 481.754 187.447 482.691 188.345C483.093 188.66 483.576 188.85 484.082 188.894C485.43 189.244 486.838 189.29 488.205 189.028C491.182 188.221 489.617 186.384 490.555 184.748C491.99 182.246 491.741 183.761 494.269 182.326C496.136 181.267 498.548 179.346 496.99 176.646C494.28 171.951 478.146 175.197 474.148 177.214Z" fill="#FF8E4F"/>
<path d="M554.9 174.854L552.524 175.174C547.167 175.897 541.779 176.627 536.62 178.253C538.853 179.146 541.197 179.728 543.585 179.981C544.9 180.047 546.206 180.234 547.487 180.542C549.766 181.228 552.062 182.999 554.264 182.092C555.629 181.529 556.075 180.092 557.206 179.331C557.986 178.805 560.948 177.953 561.279 177.423C563.956 173.131 556.958 174.576 554.9 174.854Z" fill="#FF8E4F"/>
<path d="M565.332 185.771C562.159 187.565 559.215 189.745 556.565 192.262C555.449 193.323 554.309 194.643 554.41 196.188C554.544 198.243 556.709 199.434 558.584 200.237L566.178 203.488C567.1 202.175 566.256 200.362 565.304 199.072C564.352 197.782 563.221 196.289 563.641 194.737C564.121 192.965 566.258 192.361 568.05 192.056C570.969 191.558 578.844 191.598 577.898 186.841C576.783 181.236 568.263 184.115 565.332 185.771Z" fill="#FF8E4F"/>
<path d="M563.805 502.963C563.082 505.079 563.013 507.572 564.264 509.42C565.667 511.493 568.476 512.266 570.906 511.741C573.326 511.09 575.482 509.688 577.072 507.732C578.527 506.093 579.723 504.239 580.619 502.232C581.87 499.106 582.753 495.842 583.248 492.507L585.606 479.989C586.133 477.191 586.113 468.614 581.027 471.409C579.638 472.172 576.421 478.2 574.965 479.909C572.341 482.989 571.994 485.978 570.612 489.71C568.882 494.385 565.405 498.281 563.805 502.963Z" fill="#FF8E4F"/>
<path d="M832.411 567.02C830.747 566.364 829.132 565.586 827.578 564.694C826.021 569.024 825.192 573.587 825.128 578.193L836.515 571.679C838.228 570.699 840.17 569.337 840.133 567.347C840.148 567.102 840.098 566.856 839.987 566.637C839.877 566.418 839.709 566.233 839.503 566.101C839.25 565.999 838.975 565.966 838.705 566.007C837.017 566.149 835.477 566.989 833.884 567.573C832.292 568.157 830.429 568.466 828.968 567.599" fill="#FF8E4F"/>
<path d="M892.479 570.888C891.23 571.232 890.009 571.675 888.828 572.213C886.215 573.557 884.437 576.111 882.086 577.881C879.835 579.575 877.126 580.506 874.467 581.41C873.685 582.109 874.044 583.517 874.894 584.131C875.806 584.657 876.854 584.894 877.901 584.815C880.664 584.877 883.574 584.903 885.994 583.554C887.358 582.66 888.633 581.636 889.804 580.497C892.634 578.11 896.031 576.535 899.395 575.013C900.619 574.546 901.751 573.862 902.737 572.993C904.851 570.887 904.999 567.64 901.952 566.923C899.49 566.344 894.824 570.121 892.479 570.888Z" fill="#FF8E4F"/>
<path d="M919.02 553.359C919.157 551.911 918.967 550.45 918.463 549.086C917.96 547.723 917.157 546.493 916.114 545.49C916.083 548.388 915.996 551.476 914.384 553.872C913.235 555.58 911.434 556.734 910.175 558.36C908.917 559.987 908.358 562.565 909.834 563.992C910.778 564.718 911.927 565.119 913.113 565.134C916.052 565.484 919.453 565.679 921.514 563.532C922.639 562.361 923.186 560.625 924.558 559.764C925.069 559.547 925.525 559.217 925.893 558.798C926.46 557.887 925.56 556.687 924.547 556.359C923.533 556.031 922.417 556.185 921.399 555.874C920.38 555.562 919.446 554.404 919.968 553.467" fill="#FF8E4F"/>
<path d="M871.849 447.097C870.307 447.476 868.711 447.571 867.136 447.378C864.52 446.892 862.483 444.898 860.371 443.263C855.351 439.398 849.247 437.242 842.938 437.105C837.199 436.995 831.406 438.568 825.769 437.471C826.138 439.542 827.89 441.095 829.761 442.018C831.631 442.942 833.695 443.406 835.574 444.311C838.583 445.773 840.97 448.284 842.297 451.382C842.902 452.811 843.283 454.365 844.2 455.612C846.074 458.162 849.626 458.721 852.76 458.513C856.847 458.241 861.115 457.053 864.917 458.592C867.826 459.77 869.908 462.344 872.336 464.345C874.765 466.346 878.185 467.832 880.974 466.388C878.077 465.44 875.556 463.58 873.779 461.081C872.001 458.582 871.061 455.573 871.094 452.495C873.829 452.75 881.706 452.651 881.282 447.952C880.923 443.97 874.197 446.667 871.849 447.097Z" fill="#FF8E4F"/>
<path d="M836.069 479.496C836.555 476.803 839.211 474.425 838.384 471.819C837.811 470.016 835.744 469.126 833.873 469.082C832.001 469.037 830.162 469.601 828.29 469.654C827.072 469.589 825.851 469.606 824.635 469.707C820.92 470.324 818.63 474.261 815.128 475.661C813 476.513 810.608 476.35 808.394 476.938C803.368 478.274 800.187 483.076 796.674 486.948C790.997 493.175 783.602 497.536 775.445 499.465C772.587 500.134 769.515 500.562 767.244 502.439C764.236 504.924 763.495 509.184 762.826 513.053C760.977 523.737 758.151 534.225 754.385 544.381L766.32 545.922C768.589 546.215 770.94 546.501 773.126 545.822C774.715 545.216 776.22 544.406 777.603 543.411C782.919 540.074 788.867 537.903 795.065 537.038C798.19 536.604 801.467 536.525 804.4 537.699C807.333 538.874 809.849 541.537 810.094 544.717C811.363 544.318 812.714 544.275 814.005 544.592C815.296 544.91 816.477 545.576 817.422 546.519C819.291 548.444 820.515 550.914 820.921 553.58C821.235 555.231 821.55 557.209 823.065 557.902C824.301 558.467 825.719 557.858 827.071 557.749C831.659 557.377 835.467 562.787 839.977 561.855C844.813 560.856 846.001 553.532 850.72 552.065C853.43 551.223 857.231 552.247 858.529 549.698C859.673 547.452 857.39 544.86 857.626 542.344C857.916 539.247 861.529 537.932 864.315 536.61C873.919 532.054 878.477 518.985 873.823 509.346C871.065 503.635 865.64 499.139 864.638 492.865C863.867 488.038 865.749 482.409 862.705 478.609C861.156 476.677 858.535 475.61 857.613 473.303C857.033 471.852 857.266 470.204 856.954 468.671C856.642 467.137 855.319 465.533 853.821 465.931C849.473 467.085 848.086 480.664 845.758 483.964C842.219 488.979 834.955 485.676 836.069 479.496Z" fill="#FF8E4F"/>
<path d="M755.705 452.228C754.219 451.807 752.597 451.392 751.173 451.994C749.75 452.596 748.918 454.709 750.061 455.757C759 455.405 767.993 455.056 776.856 456.283C787.068 457.697 797.173 461.2 807.43 460.17C801.571 458.422 795.616 457.025 789.595 455.985L779.554 454.046C776.86 453.476 774.139 453.05 771.401 452.772C765.673 452.294 761.337 453.824 755.705 452.228Z" fill="#FF8E4F"/>
<path d="M764.654 420.751C763.912 420.688 762.993 420.635 762.609 421.28C762.242 421.896 762.662 422.71 762.465 423.401C762.195 424.346 760.972 424.587 760.009 424.458C759.045 424.33 758.003 424.022 757.149 424.492C756.716 424.791 756.391 425.224 756.222 425.725C756.053 426.227 756.049 426.771 756.212 427.275C756.561 428.276 757.126 429.186 757.865 429.939C759.127 431.548 760.566 433.007 762.153 434.288C765.225 436.581 769.388 437.686 771.323 441.014C771.595 441.659 772.015 442.23 772.547 442.681C773.476 443.275 774.688 442.823 775.688 442.361L779.193 440.741C779.825 440.511 780.389 440.124 780.832 439.614C781.633 438.515 781.141 436.953 780.469 435.77C779.797 434.586 778.936 433.361 779.08 432.004C779.338 429.584 782.415 428.658 783.68 426.588C784.956 424.501 784.125 421.812 784.272 419.364C784.444 416.5 786.224 412.775 783.361 410.635C780.927 408.817 778.601 410.497 776.854 412.505C773.169 416.738 771.427 421.323 764.654 420.751Z" fill="#FF8E4F"/>
<path d="M785.934 377.963C787.131 380.28 789.626 381.663 790.931 383.92C792.346 386.365 792.185 389.526 793.72 391.896C795.294 394.329 798.463 395.62 799.346 398.386C800.31 401.407 798.123 405.078 799.866 407.717C800.192 408.148 800.602 408.506 801.071 408.769C801.54 409.032 802.059 409.193 802.593 409.242C803.127 409.292 803.666 409.229 804.174 409.057C804.683 408.885 805.151 408.609 805.549 408.244C806.284 407.435 806.677 406.367 806.645 405.269C806.613 404.171 806.158 403.129 805.377 402.365C804.344 401.413 802.862 401.002 802 399.89C801.551 399.249 801.252 398.512 801.125 397.737C800.655 395.501 800.731 393.182 801.345 390.982C801.575 390.423 801.634 389.808 801.513 389.215C801.125 388.074 799.597 387.993 798.525 387.464C796.091 386.263 796.15 382.789 796.575 380.084C796.292 381.885 789.947 378.821 789.282 377.801C787.962 375.775 788.681 371.865 788.419 369.626C785.57 371.014 784.471 375.13 785.934 377.963Z" fill="#FF8E4F"/>
<path d="M722.01 413.614C720.839 412.288 719.075 410.901 717.505 411.701C716.307 412.311 715.977 413.987 716.447 415.257C717.019 416.491 717.899 417.552 719.001 418.336C722.274 421.065 725.797 423.527 728.652 426.699C733.76 432.375 736.466 440.034 742.022 445.263C743.138 446.475 744.617 447.284 746.232 447.566C747.85 447.718 749.668 446.671 749.854 445.038C750.007 443.693 749.08 442.489 748.174 441.493C746.015 439.119 743.653 436.935 741.615 434.455C740.674 433.502 740.083 432.253 739.939 430.915C739.929 429.58 741.133 428.182 742.413 428.513C740.856 428.111 739.702 425.489 737.418 424.996C735.509 424.585 735.048 425.779 732.776 424.794C728.443 422.916 725.044 417.048 722.01 413.614Z" fill="#FF8E4F"/>
<path d="M823.815 284.542C822.572 284.169 821.35 283.727 820.154 283.22C816.937 282.244 812.681 284.634 813.11 288.003C813.395 290.24 815.455 291.749 816.592 293.69C818.279 296.569 817.83 300.22 816.943 303.444C816.725 304.442 816.311 305.386 815.726 306.219C814.907 307.098 813.928 307.81 812.843 308.315C808.499 310.778 804.668 314.069 801.562 318.006C801.224 318.369 800.989 318.818 800.88 319.304C800.727 320.442 801.857 321.27 802.497 322.218C803.916 324.325 802.89 327.16 803.031 329.706C803.009 330.066 803.079 330.425 803.233 330.75C803.388 331.075 803.621 331.355 803.913 331.563C804.769 332.003 805.783 331.256 806.246 330.406C807.786 327.587 806.626 323.061 809.514 321.701C810.06 321.444 810.722 321.336 811.087 320.85C811.665 320.081 811.107 318.941 811.4 318.021C811.84 316.64 813.708 316.578 815.142 316.639C817.612 316.744 820.081 316.411 822.438 315.657C823.363 315.435 824.203 314.943 824.854 314.243C825.717 313.154 825.64 311.605 825.468 310.22C824.604 303.316 822.441 296.643 819.096 290.561C821.632 290.889 824.392 291.173 826.581 289.836C827.807 289.088 829.276 286.85 828.669 285.326C827.707 282.917 825.971 284.945 823.815 284.542Z" fill="#FF8E4F"/>
<path d="M498.619 322.513C498.923 324.159 499.221 325.893 498.687 327.478C498.154 329.063 496.475 330.388 494.89 329.902C493.66 329.525 492.95 328.274 492.076 327.321C487.219 322.019 476.26 325.089 473.259 318.53C472.035 315.852 472.867 312.645 472.032 309.819C471.505 308.186 470.456 306.776 469.051 305.811C467.645 304.845 465.962 304.379 464.266 304.486C462.719 304.712 461.214 305.166 459.798 305.834C450.31 309.676 440.35 312.195 430.192 313.321C428.261 313.44 426.351 313.791 424.503 314.368C420.332 315.897 417.481 319.807 415.453 323.797C413.425 327.786 411.927 332.106 409.208 335.651C406.35 339.376 402.345 341.985 398.609 344.807C397.17 345.744 395.972 347.014 395.113 348.512C394.303 350.193 394.349 352.148 394.412 354.017L395.175 376.715C395.274 379.634 395.397 382.658 396.689 385.271C398.303 388.533 401.491 390.67 403.703 393.552C405.96 396.514 407.136 400.173 407.031 403.911C406.984 405.414 406.836 407.191 407.994 408.135C408.698 408.596 409.522 408.836 410.361 408.823L440.728 411.336C446.07 411.778 451.99 412.505 455.478 416.619C457.124 418.561 458.446 421.354 460.967 421.563C462.049 421.652 463.101 421.203 464.183 421.116C466.911 420.898 469.309 422.992 470.822 425.299C473.112 428.814 474.151 433.013 473.769 437.205C473.521 439.836 472.714 442.394 472.54 445.031C471.878 455.066 480.292 463.784 480.455 473.84C480.551 479.755 477.774 485.282 475.066 490.526C479.436 497.219 475.858 506.132 477.598 513.957C479.248 521.381 485.37 527.193 486.896 534.643C487.594 538.055 487.635 542.252 490.61 544.009C491.915 544.652 493.362 544.945 494.812 544.86C503.556 544.964 512.201 542.975 520.039 539.053C523.718 537.207 527.53 534.452 528.172 530.351C528.69 527.044 527.032 523.345 528.72 520.464C530.709 517.069 535.806 517.338 538.734 514.728C543.483 510.493 539.779 502.417 541.704 496.317C543.433 490.834 549.387 487.922 552.338 483.001C553.5 480.885 554.333 478.601 554.809 476.229C556.161 470.56 557.003 464.779 557.324 458.957C557.403 455.42 557.66 451.889 558.097 448.378C561.279 428.391 580.822 415.007 587.167 395.806C587.773 393.973 588.057 391.53 586.444 390.493C585.487 390.031 584.402 389.916 583.371 390.167L569.372 391.952C567.634 392.173 565.791 392.381 564.194 391.65C562.597 390.92 561.453 388.878 562.3 387.327C564.677 382.972 559.786 377.47 557.614 373.007C551.762 360.992 544.794 349.565 536.803 338.883C536.291 338.334 535.971 337.631 535.89 336.88L539.863 337.014C538.522 332.149 536.309 326.824 531.633 325.044C528.999 324.041 526.081 324.388 523.27 324.543C515.219 324.988 506.588 323.759 498.619 322.513Z" fill="#FF8E4F"/>
<path d="M523.277 212.865C525.384 215.127 527.745 217.525 530.793 217.92C536.177 218.616 540.048 212.987 542.513 208.097C542.604 209.344 543.173 210.505 544.098 211.334C545.023 212.163 546.231 212.595 547.466 212.537C548.795 212.311 550.064 211.81 551.192 211.064C561.86 205.17 573.808 202.047 585.965 201.976C585.848 201.045 586.076 200.103 586.606 199.332C587.135 198.562 587.929 198.016 588.832 197.802C591.304 197.307 593.53 199.467 594.723 201.711C595.915 203.956 596.658 206.557 598.553 208.237C600.447 209.917 604.115 209.844 604.863 207.411C605.581 205.076 603.175 203.084 601.175 201.707C599.176 200.33 597.069 197.782 598.415 195.75C608.629 193.464 618.907 191.169 629.358 190.715C631.138 190.777 632.911 190.468 634.567 189.807C636.161 189.017 637.428 187.221 636.999 185.479C634.718 186.022 632.329 185.865 630.137 185.029C627.945 184.192 626.049 182.715 624.69 180.785C639.192 179.575 654.617 178.544 667.47 185.443C669.012 188.791 661.151 191.576 663.254 194.595C663.925 195.558 665.269 195.671 666.434 195.693C675.365 195.861 684.348 196.025 693.179 194.662C696.406 194.164 699.665 193.46 702.905 193.864C708.301 194.537 712.917 198.178 718.226 199.365C720.387 199.848 722.81 199.864 724.631 198.594C726.453 197.323 727.236 194.429 725.743 192.777C730.742 187.824 739.038 189.052 745.633 191.423C752.227 193.795 758.475 197.619 765.454 198.147C770.459 198.527 775.534 197.165 780.479 198.031C783.587 198.574 786.48 199.972 789.517 200.831C795.262 202.455 801.339 202.112 807.304 202.191C822.523 202.398 837.575 205.422 851.716 211.113C853.556 211.719 855.242 212.726 856.654 214.063C857.97 215.487 858.641 217.701 857.756 219.433L843.144 217.274C844.52 220.015 848.082 220.482 850.975 221.427C853.867 222.372 856.866 225.602 855.128 228.123C851.994 227.115 849.154 230.283 847.571 233.198C845.988 236.113 844.058 239.604 840.774 239.781C837.833 239.94 834.276 237.408 832.359 239.669C835.007 243.047 837.275 246.713 839.121 250.599C841.015 254.589 842.364 259.615 839.804 263.205C839.401 263.846 838.79 264.324 838.076 264.559C835.985 265.094 834.627 262.509 833.128 260.941C831.238 258.966 828.381 258.407 825.823 257.48C823.264 256.554 820.569 254.732 820.369 251.992C820.244 250.287 821.134 248.702 821.79 247.126C822.892 244.47 823.374 241.593 823.199 238.718C823.055 236.406 822.414 234 820.771 232.384C819.128 230.768 816.292 230.255 814.528 231.735C813.705 232.426 813.046 233.53 811.977 233.572C810.089 233.645 808.639 230.316 807.12 231.453C807.298 232.663 807.05 233.899 806.419 234.943C801.885 238.929 794.921 237.243 789.077 238.651C786.298 239.455 783.637 240.63 781.165 242.144C780.24 242.544 779.453 243.212 778.903 244.064C778.174 245.497 778.978 247.333 780.264 248.286C781.628 249.131 783.16 249.66 784.75 249.834C791.875 251.198 799.104 253.31 804.729 257.938C810.354 262.565 814.043 270.213 812.263 277.321L798.212 263.746C798.746 269.446 799.049 275.161 799.121 280.892C799.212 282.011 799.06 283.137 798.676 284.19C797.674 286.427 794.959 287.18 792.58 287.674C791.918 287.801 791.291 288.068 790.739 288.458C790.186 288.847 789.722 289.351 789.376 289.935C789.029 290.519 788.809 291.171 788.73 291.847C788.651 292.523 788.714 293.209 788.915 293.859C789.76 296.644 791.868 298.816 793.797 300.98C795.727 303.144 797.626 305.603 797.879 308.506C798.131 311.408 795.965 314.68 793.091 314.478C790.911 314.325 789.294 312.352 788.365 310.353C787.435 308.355 786.882 306.128 785.485 304.43C781.258 299.289 771.763 301.491 767.975 296.011C767.01 297.118 766.341 298.457 766.031 299.899C765.721 301.341 765.78 302.84 766.204 304.252C767.966 303.137 770.378 304.173 771.702 305.793C773.026 307.414 773.65 309.491 774.69 311.311C776.092 313.767 778.325 315.944 778.521 318.773C778.469 319.842 778.486 320.914 778.574 321.982C778.922 323.696 780.355 324.927 781.348 326.359C783.66 329.693 783.546 334.273 782.056 338.056C780.566 341.838 777.889 344.999 775.237 348.063C770.606 353.416 765.88 358.737 760.39 363.182C758.823 364.45 757.151 365.697 756.175 367.47C755.2 369.244 755.15 371.733 756.649 373.081C755.576 373.136 753.652 373.669 752.579 373.724C752.202 369.372 752.12 365 752.334 360.637C748.1 358.581 743.541 364.086 744.088 368.802C744.634 373.519 748.008 377.303 750.41 381.384C752.167 384.368 753.472 387.847 752.886 391.269C752.299 394.691 749.278 397.847 745.857 397.545C740.414 397.065 738.138 389.166 732.749 388.262C732.273 388.149 731.774 388.199 731.33 388.404C730.53 388.848 730.391 389.93 730.346 390.852C730.126 395.375 729.935 400.078 731.681 404.248C734.236 410.348 740.836 415.472 739.451 421.947C731.993 418.442 728.116 409.986 726.355 401.863C724.594 393.741 724.301 385.214 721.145 377.535C718.749 380.64 713.712 378.073 711.522 374.815C709.446 371.726 708.168 368.153 706.154 365.023C704.14 361.893 701.055 359.09 697.366 358.918C693.497 358.737 690.142 361.421 687.192 363.957C684.766 366.042 682.275 368.21 680.857 371.092C678.793 375.287 679.333 380.232 679.234 384.916C679.126 389.98 678.065 395.322 674.651 399.03C671.238 402.737 664.937 404.028 661.172 400.687C659.207 398.943 658.255 396.337 657.407 393.835C653.321 381.777 649.918 369.494 647.214 357.044C646.582 359.886 644.114 363.548 641.757 361.874C641.228 361.424 640.799 360.866 640.499 360.236C636.102 352.7 627.958 348.18 619.729 345.47C611.501 342.76 602.844 341.496 594.707 338.517C590.147 336.847 585.792 334.654 581.727 331.98C580.69 333.519 580.085 335.313 579.975 337.172C579.866 339.031 580.255 340.885 581.103 342.538C582.908 345.769 586.992 347.639 590.489 346.51C592.295 345.926 593.821 344.658 595.614 344.031C597.407 343.405 599.813 343.713 600.597 345.459C601.347 347.131 600.213 349.153 600.776 350.898C601.633 353.556 605.598 353.761 606.984 356.18C608.016 357.98 607.167 360.369 605.694 361.822C604.221 363.274 602.256 364.071 600.458 365.081C594.624 368.362 590.475 373.961 585.376 378.318C580.277 382.674 573.083 385.855 567.007 383.06C568.455 375.645 559.718 370.2 558.111 362.818C557.582 360.388 557.856 357.807 557.101 355.439C556.008 352.011 552.999 349.654 550.531 347.056C547.538 343.871 545.206 340.111 543.673 336C542.14 331.889 541.437 327.509 541.606 323.118C541.739 320.067 542.293 316.967 541.606 313.993C540.919 311.019 538.483 308.141 535.466 308.275C528.574 308.583 519.891 309.102 516.275 303.161C514.985 301.041 514.423 297.936 516.289 296.312C517.605 295.166 519.548 295.274 521.277 295.446L536.806 296.99C540.438 297.352 544.364 297.65 547.48 295.73C550.597 293.81 551.947 288.715 549.062 286.456C546.953 284.806 543.175 284.895 542.562 282.271C542.052 280.086 544.444 277.607 543.152 275.78C542.225 274.471 540.143 274.834 538.88 275.816C537.618 276.797 536.703 278.233 535.29 278.976C532.812 280.28 529.851 279.039 527.185 278.196C524.52 277.352 520.946 277.281 519.653 279.784C518.206 282.584 520.935 286.253 519.5 289.058C517.603 292.768 511.177 290.656 508.512 293.847C505.454 297.508 510.593 302.967 509.561 307.644C508.245 308.303 506.782 308.606 505.315 308.523C503.848 308.439 502.427 307.973 501.192 307.169C499.977 306.333 499.009 305.18 498.39 303.833C497.772 302.485 497.526 300.993 497.679 299.516C497.934 297.412 499.019 295.264 498.292 293.276C497.705 291.668 496.108 290.711 494.625 289.882L479.534 281.451C478.133 284.079 479.904 287.337 482.12 289.31C484.335 291.284 487.109 292.771 488.565 295.368C489.485 297.168 489.691 299.255 489.141 301.203C488.591 303.151 487.327 304.814 485.605 305.851C485.39 306.002 485.144 306.103 484.886 306.149C484.628 306.194 484.363 306.183 484.109 306.115C483.869 305.972 483.659 305.782 483.492 305.555C483.325 305.328 483.206 305.07 483.139 304.796C480.477 297.907 476.479 291.115 470.088 287.516C463.697 283.917 454.514 284.657 450.323 290.719C449.327 292.159 448.659 293.801 447.792 295.323C443.185 303.411 433.307 307.241 424.079 306.991C423.177 307.041 422.279 306.828 421.493 306.376C420.001 305.335 420.068 303.125 420.297 301.307L421.265 293.592C421.46 292.042 421.742 290.33 422.955 289.363C424.664 288 427.13 288.86 429.307 288.828C430.957 288.75 432.542 288.161 433.85 287.141C435.157 286.121 436.122 284.72 436.615 283.126C437.055 281.517 437.052 279.817 436.607 278.21C436.162 276.602 435.291 275.148 434.089 274.003C433.091 273.056 431.752 271.865 432.279 270.588C432.489 270.235 432.773 269.932 433.112 269.702C433.45 269.471 433.834 269.319 434.237 269.255C438.148 268.106 442.28 267.806 446.125 266.451C449.971 265.096 453.7 262.324 454.611 258.311C454.89 257.081 455.017 255.592 456.109 254.982C456.657 254.748 457.246 254.626 457.841 254.624C459.926 254.324 461.824 253.246 463.162 251.602C464.5 249.958 465.181 247.867 465.07 245.741C466.913 244.439 469.495 245.397 471.278 246.781C473.061 248.166 474.635 249.996 476.804 250.593C480.847 251.705 484.754 248.086 488.944 248.069C490.706 248.062 492.53 248.692 494.188 248.088C495.868 247.476 496.871 245.785 498.161 244.535C499.451 243.286 501.714 242.524 502.905 243.87L501.891 236.275C503.933 236.796 506.062 236.87 508.135 236.491C510.208 236.113 512.176 235.29 513.909 234.078L500.802 229.6C500.346 229.485 499.925 229.258 499.577 228.938C498.624 227.901 499.57 226.284 500.345 225.105C502.199 222.283 502.51 217.636 499.462 216.232C497.381 215.273 494.993 216.424 492.996 217.55L483.43 222.943C483.126 224.781 485.349 225.823 486.727 227.061C487.561 227.811 488.151 228.797 488.42 229.892C488.689 230.986 488.624 232.138 488.234 233.194C487.844 234.251 487.147 235.163 486.234 235.812C485.322 236.461 484.237 236.815 483.122 236.829C483.752 237.657 484.189 238.618 484.402 239.64C484.615 240.662 484.598 241.72 484.352 242.735L477.916 243.203C477.193 243.35 476.443 243.201 475.828 242.791C475.14 242.172 475.233 241.089 475.074 240.172C474.688 237.96 472.545 236.409 470.358 236.011C468.171 235.614 465.934 236.123 463.768 236.627C462.849 236.961 461.839 236.938 460.935 236.56C460.417 236.22 460.024 235.718 459.815 235.13C458.865 232.803 459.753 230.067 461.278 228.076C462.803 226.086 464.89 224.631 466.765 222.973C471.248 218.996 474.542 213.83 476.275 208.06C479.818 206.559 483.486 204.519 487.03 203.018C492.492 200.222 498.618 199.022 504.718 199.553L516.718 199.785C520.27 199.854 523.919 199.942 527.204 201.311C530.489 202.68 533.376 205.642 533.602 209.227C533.671 209.633 533.636 210.05 533.502 210.439C533.367 210.827 533.137 211.175 532.833 211.449C532.369 211.705 531.844 211.825 531.316 211.795C528.003 211.912 526.59 212.747 523.277 212.865Z" fill="#FF8E4F"/>
<path d="M427.634 250.887C428.103 250.439 428.441 249.868 428.609 249.238C428.778 248.608 428.772 247.944 428.592 247.317C427.451 246.872 426.21 246.758 425.009 246.987C423.807 247.216 422.693 247.78 421.791 248.615C421.08 249.342 420.468 250.161 419.969 251.051C418.392 253.652 416.998 256.758 417.911 259.666C417.986 259.983 418.122 260.282 418.313 260.545C418.503 260.808 418.743 261.03 419.019 261.198C419.429 261.364 419.87 261.434 420.311 261.402C422.048 261.4 423.783 261.292 425.507 261.079C426.566 260.948 427.796 260.646 428.205 259.65C428.743 258.34 427.441 256.859 427.82 255.494C428.07 254.883 428.448 254.336 428.929 253.888C429.168 253.663 429.351 253.385 429.464 253.076C429.578 252.766 429.619 252.434 429.583 252.106C429.43 251.466 428.46 251.103 428.111 251.659" fill="#FF8E4F"/>
<path d="M436.642 239.081C435.098 238.722 433.508 238.621 431.933 238.782C431.584 238.771 431.239 238.85 430.929 239.012C430.629 239.236 430.411 239.554 430.311 239.917C429.978 240.997 430.06 242.164 430.54 243.185C431.02 244.207 431.863 245.008 432.901 245.429C433.466 245.561 434.008 245.781 434.507 246.082C435.839 247.127 434.99 249.262 435.242 250.947C435.525 252.84 437.336 254.428 437.004 256.312C436.743 257.797 435.175 258.972 435.427 260.458C435.691 262.014 437.645 262.482 439.202 262.607C440.104 262.766 441.033 262.659 441.876 262.297C442.722 261.712 443.323 260.832 443.564 259.826C444.201 257.908 444.469 255.884 444.353 253.863C444.346 252.944 444.118 252.041 443.688 251.231C443.219 250.59 442.699 249.988 442.134 249.432C439.151 245.924 442.292 240.69 436.642 239.081Z" fill="#FF8E4F"/>
<path opacity="0.8" d="M828.92 513.917C828.92 513.917 600.44 381.314 502.077 406.439C502.077 406.439 293.615 429.121 269.456 479.022C269.456 479.022 203.19 269.649 179.031 262.67" stroke="#E1F2FF" stroke-width="2" stroke-miterlimit="10"/>
<path opacity="0.8" d="M269.456 479.022C307.766 375.731 652.901 261.274 652.901 261.274C603.892 273.836 502.077 406.439 502.077 406.439C502.077 406.439 286.713 248.014 179.03 262.67C179.03 262.67 653.246 278.373 828.92 513.917" stroke="#E1F2FF" stroke-width="2" stroke-miterlimit="10"/>
<path d="M179.03 272.79C184.558 272.79 189.039 268.259 189.039 262.67C189.039 257.081 184.558 252.55 179.03 252.55C173.503 252.55 169.022 257.081 169.022 262.67C169.022 268.259 173.503 272.79 179.03 272.79Z" fill="#E1F2FF"/>
<path d="M269.456 489.141C274.984 489.141 279.465 484.611 279.465 479.022C279.465 473.433 274.984 468.902 269.456 468.902C263.928 468.902 259.447 473.433 259.447 479.022C259.447 484.611 263.928 489.141 269.456 489.141Z" fill="#E1F2FF"/>
<path d="M652.901 271.394C658.428 271.394 662.91 266.863 662.91 261.274C662.91 255.685 658.428 251.154 652.901 251.154C647.373 251.154 642.892 255.685 642.892 261.274C642.892 266.863 647.373 271.394 652.901 271.394Z" fill="#E1F2FF"/>
<path d="M828.92 524.037C834.447 524.037 838.928 519.506 838.928 513.917C838.928 508.328 834.447 503.797 828.92 503.797C823.392 503.797 818.911 508.328 818.911 513.917C818.911 519.506 823.392 524.037 828.92 524.037Z" fill="#E1F2FF"/>
<path d="M502.077 416.559C507.605 416.559 512.086 412.028 512.086 406.439C512.086 400.85 507.605 396.319 502.077 396.319C496.549 396.319 492.068 400.85 492.068 406.439C492.068 412.028 496.549 416.559 502.077 416.559Z" fill="#E1F2FF"/>
</svg>
