<svg width="495" height="286" viewBox="0 0 495 286" fill="none" xmlns="http://www.w3.org/2000/svg">
<path d="M438.67 176.961C433.576 177.884 424.925 177.848 414.998 177.3C388.008 175.812 351.587 170.55 351.587 170.55C351.587 170.55 162.711 153.167 33.3081 71.1409C33.3081 71.1409 14.8896 56.9201 36.2658 45.9279C39.5398 44.296 42.9522 42.9582 46.4629 41.9301C46.4629 41.9301 46.5548 41.8645 46.7353 41.7443C49.226 40.1415 51.8555 38.7653 54.5921 37.6323C62.6429 34.2347 75.8268 30.844 90.2376 35.9736L446.225 159.859C446.225 159.859 457.616 173.528 438.67 176.961Z" fill="#F2F2F2"/>
<path d="M370.388 137.226L456.702 96.3222L489.484 108.132L446.225 159.858C446.225 159.858 369.578 146.971 370.388 137.226Z" fill="#F2F2F2"/>
<path d="M183.077 70.1053L343.441 54.1935L367.167 63.6836L292.665 82.5634L266.833 102.894L183.077 70.1053Z" fill="#F2F2F2"/>
<path d="M414.998 177.3C388.008 175.812 351.587 170.55 351.587 170.55C351.587 170.55 162.711 153.167 33.3081 71.1409C33.3081 71.1409 14.8896 56.9201 36.2657 45.9279L36.2836 46.2009C36.2836 46.2009 62.8007 71.8571 203.653 114.211L414.998 177.3Z" fill="#F2F2F2"/>
<path d="M390.642 171.792L454.045 211.733L471.543 212.853L436.092 174.937C436.092 174.937 388.524 155.681 390.642 171.792Z" fill="#F2F2F2"/>
<path d="M60.5053 53.544C57.2331 53.0259 50.7298 46.2398 46.7354 41.7443C49.2262 40.1415 51.8556 38.7654 54.5922 37.6324C57.828 41.1647 63.6698 46.9904 67.4023 47.4778C72.79 48.1809 65.4274 54.3244 60.5053 53.544Z" fill="#F2F2F2"/>
<path d="M343.606 262.925L299.339 257.484L190.685 152.582L170.513 133.108L160.71 123.643C184.684 109.687 265.513 149.01 265.513 149.01C266.9 150.673 267.015 153.049 266.496 155.559C265.522 160.264 262.32 165.438 261.114 167.268C260.824 167.709 260.65 167.956 260.65 167.956L343.606 262.925Z" fill="#F2F2F2"/>
<path d="M438.67 176.961C433.576 177.884 424.925 177.848 414.998 177.3C388.008 175.812 351.587 170.55 351.587 170.55C351.587 170.55 162.711 153.167 33.3081 71.1409C33.3081 71.1409 14.8896 56.9201 36.2658 45.9279C39.5398 44.296 42.9522 42.9582 46.4629 41.9301C46.4629 41.9301 46.5548 41.8645 46.7353 41.7443C49.226 40.1415 51.8555 38.7653 54.5921 37.6323C62.6429 34.2347 75.8268 30.844 90.2376 35.9736L446.225 159.859C446.225 159.859 457.616 173.528 438.67 176.961Z" fill="#3F3D56"/>
<path d="M370.388 137.226L456.702 96.3222L489.484 108.132L446.225 159.858C446.225 159.858 369.578 146.971 370.388 137.226Z" fill="#3F3D56"/>
<path d="M183.077 70.1053L343.441 54.1935L367.167 63.6836L292.665 82.5634L266.833 102.894L183.077 70.1053Z" fill="#3F3D56"/>
<path d="M414.998 177.3C388.008 175.812 351.587 170.55 351.587 170.55C351.587 170.55 162.711 153.167 33.3081 71.1409C33.3081 71.1409 14.8896 56.9201 36.2657 45.9279L36.2836 46.2009C36.2836 46.2009 62.8007 71.8571 203.653 114.211L414.998 177.3Z" fill="#FF924E"/>
<path d="M390.642 171.792L454.045 211.733L471.543 212.853L436.092 174.937C436.092 174.937 388.524 155.681 390.642 171.792Z" fill="#3F3D56"/>
<path d="M60.5053 53.544C57.2331 53.0259 50.7298 46.2398 46.7354 41.7443C49.2262 40.1415 51.8556 38.7654 54.5922 37.6324C57.828 41.1647 63.6698 46.9904 67.4023 47.4778C72.79 48.1809 65.4274 54.3244 60.5053 53.544Z" fill="#FF924E"/>
<path d="M343.606 262.925L299.339 257.484L190.685 152.582L170.513 133.108L160.71 123.643C184.684 109.687 265.513 149.01 265.513 149.01C266.9 150.673 267.015 153.049 266.496 155.559C265.522 160.264 262.32 165.438 261.114 167.268C260.824 167.709 260.65 167.956 260.65 167.956L343.606 262.925Z" fill="#3F3D56"/>
</svg>
