<svg width="573" height="372" viewBox="0 0 573 372" fill="none" xmlns="http://www.w3.org/2000/svg">
<path d="M0 0H573V372H0V0Z" fill="#E30A17"/>
<path d="M202.938 279C255.681 279 298.438 237.362 298.438 186C298.438 134.638 255.681 93 202.938 93C150.194 93 107.438 134.638 107.438 186C107.438 237.362 150.194 279 202.938 279Z" fill="white"/>
<path d="M226.812 260.4C269.007 260.4 303.212 227.09 303.212 186C303.212 144.91 269.007 111.6 226.812 111.6C184.618 111.6 150.412 144.91 150.412 186C150.412 227.09 184.618 260.4 226.812 260.4Z" fill="#E30A17"/>
<path d="M278.542 186L364.922 213.332L311.536 141.776V230.224L364.922 158.668L278.542 186Z" fill="white"/>
</svg>
