<svg width="1440" height="390" viewBox="0 0 1440 390" fill="none" xmlns="http://www.w3.org/2000/svg">
<path fill-rule="evenodd" clip-rule="evenodd" d="M0 0L39.6 8.125C80.4 16.25 159.6 32.5 240 97.5C320.4 162.5 399.6 276.25 480 276.25C560.4 276.25 639.6 162.5 720 105.625C800.4 48.75 879.6 48.75 960 81.25C1040.4 113.75 1119.6 178.75 1200 186.875C1280.4 195 1359.6 146.25 1400.4 121.875L1440 97.5V390H1400.4C1359.6 390 1280.4 390 1200 390C1119.6 390 1040.4 390 960 390C879.6 390 800.4 390 720 390C639.6 390 560.4 390 480 390C399.6 390 320.4 390 240 390C159.6 390 80.4 390 39.6 390H0V0Z" fill="#03223E"/>
</svg>
